#!OML:ASF F:\VICON\USERDATA\INSTALL\rory3\rory3.ASF
:FULLY-SPECIFIED
:DEGREES
3199
root -2.74848 17.7047 1.40113 3.75094 -0.349024 1.10914
lowerback -0.0661749 -0.192109 -4.50518
upperback 1.1792 -0.23949 1.60511
thorax 1.2765 -0.177399 4.18107
lowerneck -24.7388 -1.57084 -9.02156
upperneck 24.3833 -0.820587 7.17065
head 12.2214 -0.241118 4.10853
rclavicle -5.96354e-015 -1.59028e-015
rhumerus 3.112 -24.4738 -39.2614
rradius 36.1725
rwrist 36.6959
rhand -26.5746 -7.23013
rfingers 7.12502
rthumb -0.00922897 -37.2099
lclavicle -5.96354e-015 -1.59028e-015
lhumerus -4.80401 25.4305 34.1604
lradius 34.4061
lwrist -14.4506
lhand -21.0404 23.0415
lfingers 7.12502
lthumb 5.33534 52.9543
rfemur -14.1501 2.09616 11.777
rtibia 32.0139
rfoot -19.5992 -5.44742
rtoes 8.71574
lfemur -10.3901 -2.41777 -17.7795
ltibia 27.3822
lfoot -15.9449 7.90642
ltoes -20.2628
3200
root -2.74938 17.7027 1.39844 3.66075 -0.230674 1.15129
lowerback -0.0417958 -0.20532 -4.59758
upperback 1.12932 -0.258533 1.64538
thorax 1.21432 -0.185479 4.2751
lowerneck -24.8721 -1.60827 -9.12201
upperneck 24.6164 -0.849349 7.23957
head 12.3428 -0.256632 4.15833
rclavicle 1.62506e-014 6.36111e-015
rhumerus 4.10563 -24.1455 -39.0707
rradius 36.5009
rwrist 36.4561
rhand -26.7225 -7.66458
rfingers 7.12502
rthumb -0.152042 -37.6443
lclavicle 1.62506e-014 6.36111e-015
lhumerus -3.73293 24.5821 34.0017
lradius 34.8465
lwrist -13.9967
lhand -21.1651 22.9431
lfingers 7.12502
lthumb 5.21493 52.8589
rfemur -14.0302 2.08375 11.7333
rtibia 32.0084
rfoot -19.6818 -5.42856
rtoes 9.0276
lfemur -10.3223 -2.48257 -17.8164
ltibia 27.3979
lfoot -15.9527 7.81825
ltoes -20.031
3201
root -2.74921 17.7023 1.39755 3.60006 -0.0857374 1.13663
lowerback -0.0389051 -0.251534 -4.59345
upperback 1.0875 -0.321314 1.68982
thorax 1.17669 -0.215249 4.31825
lowerneck -24.9358 -1.62805 -9.20562
upperneck 24.7141 -0.856871 7.29175
head 12.3953 -0.26192 4.19635
rclavicle 4.12478e-015 1.74931e-014
rhumerus 5.17987 -24.0853 -38.9466
rradius 36.7759
rwrist 36.4344
rhand -26.776 -7.34791
rfingers 7.12502
rthumb -0.20373 -37.3276
lclavicle 4.12478e-015 1.74931e-014
lhumerus -2.48898 24.5519 33.8855
lradius 34.9754
lwrist -14.2191
lhand -21.0584 22.8275
lfingers 7.12502
lthumb 5.31793 52.7408
rfemur -13.9282 1.95429 11.7601
rtibia 31.9998
rfoot -19.6634 -5.53677
rtoes 8.80439
lfemur -10.283 -2.50425 -17.7969
ltibia 27.4141
lfoot -15.9495 7.72388
ltoes -20.2495
3202
root -2.74807 17.7009 1.39768 3.53148 0.0968893 1.06658
lowerback -0.00245209 -0.297946 -4.49415
upperback 1.02973 -0.386429 1.72336
thorax 1.10317 -0.243933 4.29634
lowerneck -24.9183 -1.64361 -9.19103
upperneck 24.7404 -0.885613 7.28552
head 12.4052 -0.274798 4.18727
rclavicle -1.20762e-014 1.19271e-014
rhumerus 6.23602 -24.3171 -38.8114
rradius 36.9249
rwrist 36.6354
rhand -26.6678 -6.71549
rfingers 7.12502
rthumb -0.0992841 -36.6952
lclavicle -1.20762e-014 1.19271e-014
lhumerus -1.35912 24.3401 33.6536
lradius 35.2012
lwrist -14.0854
lhand -21.3274 22.9875
lfingers 7.12502
lthumb 5.0582 52.9071
rfemur -13.7876 1.813 11.8446
rtibia 31.9779
rfoot -19.6905 -5.56212
rtoes 8.80818
lfemur -10.2502 -2.57964 -17.7142
ltibia 27.4407
lfoot -15.9416 7.63467
ltoes -20.293
3203
root -2.74865 17.7006 1.39935 3.46251 0.275235 0.984663
lowerback 0.040029 -0.330338 -4.42453
upperback 0.95195 -0.433106 1.77745
thorax 1.00405 -0.262774 4.31299
lowerneck -24.9306 -1.65881 -9.23341
upperneck 24.8699 -0.905276 7.32497
head 12.4614 -0.284391 4.21185
rclavicle 5.81445e-015 -5.96354e-015
rhumerus 7.1426 -24.5104 -38.5191
rradius 37.1108
rwrist 36.7763
rhand -26.565 -6.43484
rfingers 7.12502
rthumb 7.22388e-005 -36.4146
lclavicle 5.81445e-015 -5.96354e-015
lhumerus -0.3934 23.982 33.3254
lradius 35.51
lwrist -13.6849
lhand -21.7076 23.1801
lfingers 7.12502
lthumb 4.6911 53.1082
rfemur -13.6419 1.78985 11.9547
rtibia 31.9529
rfoot -19.7897 -5.64233
rtoes 9.11326
lfemur -10.2139 -2.58566 -17.6105
ltibia 27.4622
lfoot -15.9954 7.49079
ltoes -20.3317
3204
root -2.75033 17.6998 1.40103 3.40316 0.403038 0.977204
lowerback 0.00490043 -0.347001 -4.45483
upperback 0.924061 -0.454243 1.80445
thorax 0.99789 -0.27301 4.35788
lowerneck -24.898 -1.65683 -9.30197
upperneck 24.9293 -0.905145 7.40765
head 12.4792 -0.281089 4.25796
rclavicle 2.48481e-016 -1.03368e-014
rhumerus 7.91348 -24.5672 -38.1199
rradius 37.4504
rwrist 36.6152
rhand -26.6049 -6.54555
rfingers 7.12502
rthumb -0.0385035 -36.5253
lclavicle 2.48481e-016 -1.03368e-014
lhumerus 0.617423 23.9159 33.0044
lradius 35.7571
lwrist -13.4009
lhand -21.7578 23.2557
lfingers 7.12502
lthumb 4.6426 53.1848
rfemur -13.5162 1.79204 11.9817
rtibia 31.9342
rfoot -19.8636 -5.70446
rtoes 9.14283
lfemur -10.1686 -2.58339 -17.586
ltibia 27.4671
lfoot -16.0439 7.38797
ltoes -20.4462
3205
root -2.75064 17.6994 1.40377 3.37308 0.492234 0.996406
lowerback -0.037565 -0.368383 -4.50019
upperback 0.871307 -0.481449 1.82285
thorax 0.971007 -0.285284 4.40234
lowerneck -24.818 -1.63404 -9.32002
upperneck 24.9762 -0.881374 7.42944
head 12.4797 -0.271114 4.27444
rclavicle 6.01324e-015 7.15625e-015
rhumerus 8.64604 -24.621 -37.6937
rradius 37.7693
rwrist 36.4468
rhand -26.7793 -6.93996
rfingers 7.12502
rthumb -0.206947 -36.9196
lclavicle 6.01324e-015 7.15625e-015
lhumerus 1.50397 23.9875 32.5912
lradius 35.9685
lwrist -13.2654
lhand -21.572 23.287
lfingers 7.12502
lthumb 4.82208 53.2121
rfemur -13.4341 1.77205 11.9702
rtibia 31.9192
rfoot -19.9185 -5.71722
rtoes 8.92572
lfemur -10.1373 -2.62798 -17.6007
ltibia 27.4515
lfoot -16.0397 7.34437
ltoes -20.4446
3206
root -2.74993 17.6998 1.40608 3.36541 0.629967 0.981606
lowerback -0.0180528 -0.426308 -4.49766
upperback 0.784385 -0.560697 1.85346
thorax 0.879542 -0.320846 4.43234
lowerneck -24.8085 -1.58173 -9.25095
upperneck 25.1365 -0.81504 7.34627
head 12.5341 -0.249385 4.24773
rclavicle -4.91992e-015 6.75868e-015
rhumerus 9.31106 -24.6607 -37.2355
rradius 38.0904
rwrist 36.268
rhand -27.0631 -7.46756
rfingers 7.12502
rthumb -0.481061 -37.4468
lclavicle -4.91992e-015 6.75868e-015
lhumerus 2.13482 23.9191 31.9823
lradius 36.2463
lwrist -12.8735
lhand -21.5695 23.1941
lfingers 7.12502
lthumb 4.82449 53.1192
rfemur -13.3774 1.7271 12.0012
rtibia 31.9128
rfoot -19.9716 -5.86507
rtoes 8.32246
lfemur -10.1271 -2.68241 -17.5783
ltibia 27.42
lfoot -16.0258 7.25211
ltoes -20.3595
3207
root -2.74883 17.7014 1.40867 3.35635 0.826667 0.978498
lowerback 0.0318583 -0.479533 -4.49579
upperback 0.717136 -0.634594 1.87024
thorax 0.790601 -0.354144 4.44871
lowerneck -24.869 -1.5484 -9.11037
upperneck 25.3144 -0.781554 7.20938
head 12.6125 -0.242054 4.18372
rclavicle -6.75868e-015 -3.97569e-016
rhumerus 9.81579 -24.7263 -36.5806
rradius 38.4493
rwrist 35.9891
rhand -27.2771 -7.92234
rfingers 7.12502
rthumb -0.687742 -37.901
lclavicle -6.75868e-015 -3.97569e-016
lhumerus 2.78455 23.8937 31.3373
lradius 36.4509
lwrist -12.4013
lhand -21.6429 22.9842
lfingers 7.12502
lthumb 4.7536 52.9108
rfemur -13.2959 1.73005 12.0094
rtibia 31.9134
rfoot -20.1061 -5.99684
rtoes 8.51739
lfemur -10.1212 -2.7785 -17.5701
ltibia 27.3772
lfoot -15.984 7.16921
ltoes -20.5916
3208
root -2.74835 17.7014 1.4115 3.37457 0.983948 1.01972
lowerback 0.0673403 -0.51287 -4.54147
upperback 0.63792 -0.68116 1.86481
thorax 0.694786 -0.373503 4.46927
lowerneck -24.8597 -1.54424 -9.04629
upperneck 25.4544 -0.792569 7.1637
head 12.6675 -0.249521 4.15837
rclavicle 7.8023e-015 3.18055e-015
rhumerus 10.2866 -25.0082 -35.9558
rradius 38.7305
rwrist 35.8855
rhand -27.4356 -8.01443
rfingers 7.12502
rthumb -0.840846 -37.9925
lclavicle 7.8023e-015 3.18055e-015
lhumerus 3.59499 24.4464 30.9083
lradius 36.456
lwrist -12.4651
lhand -21.6225 22.8429
lfingers 7.12502
lthumb 4.77327 52.7692
rfemur -13.2518 1.75863 11.9639
rtibia 31.9138
rfoot -20.2375 -6.06279
rtoes 9.11654
lfemur -10.144 -2.90524 -17.5995
ltibia 27.3462
lfoot -15.9842 7.07106
ltoes -20.182
3209
root -2.74951 17.7002 1.41478 3.37628 1.07531 1.09578
lowerback 0.0837922 -0.530565 -4.64214
upperback 0.593835 -0.705632 1.85874
thorax 0.644153 -0.384002 4.52027
lowerneck -24.7316 -1.53119 -9.04291
upperneck 25.4534 -0.781122 7.14319
head 12.6405 -0.248405 4.14977
rclavicle 1.26725e-015 -1.98785e-015
rhumerus 10.79 -25.4548 -35.3955
rradius 38.9461
rwrist 35.9034
rhand -27.3933 -7.9422
rfingers 7.12502
rthumb -0.799956 -37.9204
lclavicle 1.26725e-015 -1.98785e-015
lhumerus 4.56273 25.7702 30.7854
lradius 36.3158
lwrist -13.2787
lhand -21.4046 22.6809
lfingers 7.12502
lthumb 4.98369 52.6023
rfemur -13.2119 1.85985 11.904
rtibia 31.9188
rfoot -20.3518 -6.22657
rtoes 9.03303
lfemur -10.1481 -2.89156 -17.6654
ltibia 27.3224
lfoot -15.9749 6.94358
ltoes -19.9921
3210
root -2.75069 17.6993 1.41744 3.3839 1.19771 1.0944
lowerback 0.152189 -0.57395 -4.6796
upperback 0.525954 -0.767422 1.913
thorax 0.544157 -0.411125 4.59866
lowerneck -24.541 -1.50161 -9.09914
upperneck 25.4111 -0.713575 7.07931
head 12.5792 -0.2344 4.1413
rclavicle 1.22253e-014 -8.34896e-015
rhumerus 11.1536 -25.7267 -34.6749
rradius 39.2403
rwrist 35.597
rhand -27.4838 -8.67295
rfingers 7.12502
rthumb -0.887384 -38.6508
lclavicle 1.22253e-014 -8.34896e-015
lhumerus 5.15451 26.6969 30.4099
lradius 36.2794
lwrist -13.6609
lhand -21.2845 22.6014
lfingers 7.12502
lthumb 5.0997 52.52
rfemur -13.1749 1.91605 11.9302
rtibia 31.9269
rfoot -20.4951 -6.336
rtoes 9.13369
lfemur -10.1681 -2.7793 -17.6417
ltibia 27.2973
lfoot -15.9072 6.74346
ltoes -20.1217
